<?xml version="1.0" encoding="UTF-8" standalone="no"?>
<!-- Created with Inkscape (http://www.inkscape.org/) -->

<svg
   width="131.40282mm"
   height="36.10001mm"
   viewBox="0 0 131.40282 36.10001"
   version="1.1"
   id="svg1"
   xml:space="preserve"
   xmlns="http://www.w3.org/2000/svg"
   xmlns:svg="http://www.w3.org/2000/svg"><defs
     id="defs1"><linearGradient
       id="swatch91"><stop
         style="stop-color:#ff0000;stop-opacity:1;"
         offset="0"
         id="stop91" /></linearGradient><linearGradient
       id="swatch34"><stop
         style="stop-color:#ff0000;stop-opacity:1;"
         offset="0"
         id="stop34" /></linearGradient></defs><g
     id="layer1"
     transform="translate(-29.750542,-148.0202)"><g
       id="g110"><g
         id="g101"
         transform="matrix(0.92327399,0,0,0.92327399,13.862204,20.592872)"
         style="stroke:#000000;stroke-opacity:1"><path
           style="fill:#fde100;fill-opacity:1;stroke:#000000;stroke-opacity:1"
           d="m 107.64929,179.10388 v -0.9525 h -0.9525 -0.9525 v -0.9525 -0.9525 h -0.9525 -0.9525 v -0.9525 -0.9525 h -0.9525 -0.9525 v -0.9525 -0.9525 h -0.9525 -0.9525 v -0.9525 -0.9525 h -0.952487 -0.952505 v -0.9525 -0.9525 h -0.9525 -0.952499 v -0.9525 -0.9525 h 2.857504 2.857487 v -0.95249 -0.9525 h -0.9525 -0.9525 v -0.9525 -0.9525 h -0.952487 -0.952505 v -2.8575 -2.8575 h -0.9525 -0.952499 v -0.9525 -0.9525 h 0.952499 0.9525 v 0.9525 0.9525 h 0.952505 0.952487 v 0.9525 0.9525 h 0.9525 0.9525 v 0.9525 0.9525 h 0.9525 0.9525 v 0.9525 0.9525 h 0.9525 0.9525 v 0.9525 0.9525 h 0.9525 0.9525 v 0.9525 0.95249 h 0.9525 0.9525 v 0.9525 0.9525 h -2.8575 -2.8575 v 0.9525 0.9525 h 0.9525 0.9525 v 0.9525 0.9525 h 0.9525 0.9525 v 2.8575 2.8575 h 0.9525 0.9525 v 0.9525 0.9525 h -0.9525 -0.9525 z"
           id="path92"
           transform="translate(-17.197917,-3.4395833)" /><path
           style="mix-blend-mode:normal;fill:#4166ff;fill-opacity:1;stroke:#000000;stroke-opacity:1"
           d="m 172.41928,167.67388 v -0.9525 h -0.95251 -0.9525 v -0.95249 -0.9525 h -0.95249 -0.95251 v -5.715 -5.715 h -0.9525 -0.95249 v -0.9525 -0.9525 h -0.9525 -0.95251 v -0.9525 -0.9525 h 1.90501 1.90499 v -0.9525 -0.9525 h 0.95251 0.95249 v -0.9525 -0.9525 h 0.9525 0.95251 v 1.905 1.905 h 0.95249 0.9525 v 0.9525 0.9525 h 0.9525 0.9525 v 0.9525 0.9525 h -1.905 -1.90499 v 4.7625 4.7625 h 0.95249 0.9525 v 1.905 1.90499 h 0.9525 0.9525 v 0.9525 0.9525 h -1.905 -1.90499 z"
           id="path93"
           transform="translate(-17.197917,-3.4395833)" /><path
           style="mix-blend-mode:normal;fill:#4166ff;fill-opacity:1;stroke:#000000;stroke-opacity:1"
           d="m 151.46428,167.67388 v -0.9525 h -0.9525 -0.9525 v -0.95249 -0.9525 h 4.7625 4.76249 v -1.905 -1.905 h -3.80999 -3.81 v -0.9525 -0.9525 h -0.9525 -0.9525 v -0.9525 -0.9525 h -0.9525 -0.9525 v -1.905 -1.905 h 0.9525 0.9525 v -0.9525 -0.9525 h 0.9525 0.9525 v -0.9525 -0.9525 h 4.7625 4.7625 v 0.9525 0.9525 h 0.95249 0.95251 v 0.9525 0.9525 h -4.7625 -4.7625 v 1.905 1.905 h 3.81 3.81 v 0.9525 0.9525 h 0.95249 0.95251 v 0.9525 0.9525 h 0.9525 0.95249 v 1.905 1.905 h -0.95249 -0.9525 v 0.9525 0.95249 h -0.95251 -0.95249 v 0.9525 0.9525 h -4.7625 -4.7625 z"
           id="path94"
           transform="translate(-17.197917,-3.4395833)" /><path
           style="mix-blend-mode:normal;fill:#4166ff;fill-opacity:1;stroke:#000000;stroke-opacity:1"
           d="m 132.41428,167.67388 v -0.9525 h -0.9525 -0.9525 v -0.95249 -0.9525 h -0.95249 -0.9525 v -5.715 -5.715 h 0.9525 0.95249 v -0.9525 -0.9525 h 0.9525 0.9525 v -0.9525 -0.9525 h 4.7625 4.7625 v 0.9525 0.9525 h 0.9525 0.9525 v 0.9525 0.9525 h 0.9525 0.9525 v 1.905 1.905 h -0.9525 -0.9525 v 0.9525 0.9525 h -0.9525 -0.9525 v 0.9525 0.9525 h -3.81 -3.81 v -0.9525 -0.9525 h -0.9525 -0.9525 v 1.905 1.905 h 0.9525 0.9525 v 0.9525 0.9525 h 3.81 3.81 v 0.9525 0.95249 h 0.9525 0.9525 v 0.9525 0.9525 h -5.715 -5.715 z m 7.62,-12.38249 v -1.905 h -2.8575 -2.8575 v 0.9525 0.9525 h -0.9525 -0.9525 v 0.9525 0.9525 h 3.81 3.81 z"
           id="path95"
           transform="translate(-17.197917,-3.4395833)" /><path
           style="mix-blend-mode:normal;fill:#4166ff;fill-opacity:1;stroke:#000000;stroke-opacity:1"
           d="m 113.36429,167.67388 v -0.9525 h -0.9525 -0.9525 v -0.95249 -0.9525 h -0.9525 -0.9525 v -6.6675 -6.6675 h 0.9525 0.9525 v -0.9525 -0.9525 h 0.9525 0.9525 v 6.6675 6.6675 h 0.9525 0.9525 v 0.9525 0.9525 h 3.81 3.81 v -6.6675 -6.6675 h 0.9525 0.9525 v -0.9525 -0.9525 h 0.9525 0.9525 v 8.5725 8.57249 h -0.9525 -0.9525 v 0.9525 0.9525 h -5.715 -5.715 z"
           id="path96"
           transform="translate(-17.197917,-3.4395833)" /><path
           style="mix-blend-mode:normal;fill:#4166ff;fill-opacity:1;stroke:#000000;stroke-opacity:1"
           d="m 92.4093,167.67388 v -0.9525 h -0.952499 -0.9525 v -0.95249 -0.9525 h -0.9525 -0.9525 v -9.525 -9.525 h 0.9525 0.9525 v -0.9525 -0.9525 h 0.9525 0.952499 v -0.9525 -0.9525 h 5.714998 5.714992 v 0.9525 0.9525 h 0.9525 0.9525 v 1.905 1.905 h 0.9525 0.9525 v 8.5725 8.5725 h -0.9525 -0.9525 v -0.9525 -0.9525 h -0.9525 -0.9525 v -7.62 -7.62 h -0.9525 -0.9525 v -0.9525 -0.9525 h -3.809992 -3.809999 v 0.9525 0.9525 H 93.3618 92.4093 v 7.62 7.62 h 0.9525 0.952499 v 0.9525 0.9525 h 3.809999 3.809992 v 0.9525 0.95249 h -2.857487 -2.857504 v 0.9525 0.9525 h -1.905 -1.904999 z"
           id="path97"
           transform="translate(-17.197917,-3.4395833)" /><path
           style="mix-blend-mode:normal;fill:#f0ead6;fill-opacity:1;stroke:#000000;stroke-opacity:1"
           d="m 80.979304,167.67388 v -0.9525 h -0.9525 -0.9525 v -0.95249 -0.9525 h -0.9525 -0.9525 v -5.715 -5.715 h -0.952499 -0.9525 v -0.9525 -0.9525 h -0.9525 -0.952499 v -0.9525 -0.9525 h 1.904999 1.904999 v -0.9525 -0.9525 h 0.9525 0.9525 v -0.9525 -0.9525 h 0.9525 0.9525 v 1.905 1.905 h 0.9525 0.9525 v 0.9525 0.9525 h 0.9525 0.952499 v 0.9525 0.9525 h -1.904999 -1.905 v 4.7625 4.7625 h 0.9525 0.9525 v 1.905 1.90499 h 0.9525 0.952499 v 0.9525 0.9525 h -1.904999 -1.905 z"
           id="path98"
           transform="translate(-17.197917,-3.4395833)" /><path
           style="mix-blend-mode:normal;fill:#f0ead6;fill-opacity:1;stroke:#000000;stroke-opacity:1"
           d="m 59.442228,167.67388 v -0.9525 h -0.9525 -0.9525 v -0.95249 -0.9525 h -0.9525 -0.9525 v -1.905 -1.905 h 0.9525 0.9525 v -0.9525 -0.9525 h 0.9525 0.9525 v -0.9525 -0.9525 h 3.809998 3.809999 v 0.9525 0.9525 h 0.9525 0.9525 v -1.905 -1.905 h -0.9525 -0.9525 v -0.9525 -0.9525 h -3.809999 -3.809998 v -0.9525 -0.9525 h -0.9525 -0.9525 v -0.9525 -0.9525 h 5.714998 5.714999 v 0.9525 0.9525 h 0.9525 0.952499 v 0.9525 0.9525 h 0.9525 0.9525 v 5.715 5.715 h -0.9525 -0.9525 v 0.9525 0.95249 h -0.952499 -0.9525 v 0.9525 0.9525 h -4.762499 -4.762498 z m 7.619997,-3.80999 v -0.9525 h 0.9525 0.9525 v -0.9525 -0.9525 h -3.809999 -3.809999 v 1.905 1.905 h 2.857499 2.857499 z"
           id="path99"
           transform="translate(-17.197917,-3.4395833)" /><path
           style="mix-blend-mode:normal;fill:#f0ead6;fill-opacity:1;stroke:#000000;stroke-opacity:1"
           d="m 38.487234,167.67388 v -0.9525 h -0.9525 -0.952499 v -0.95249 -0.9525 h -0.9525 -0.9525 v -1.905 -1.905 h 0.9525 0.9525 v 0.9525 0.9525 h 1.904999 1.904999 v 0.9525 0.9525 h 3.809999 3.809999 v -0.9525 -0.9525 h 0.9525 0.952499 v -1.905 -1.905 h -0.952499 -0.9525 v -0.9525 -0.9525 h -4.762499 -4.762498 v -0.9525 -0.9525 h -0.9525 -0.952499 v -0.9525 -0.9525 h -0.9525 -0.9525 v -3.81 -3.81 h 0.9525 0.9525 v -0.9525 -0.9525 h 0.952499 0.9525 v -0.9525 -0.9525 h 5.714998 5.714998 v 0.9525 0.9525 h 0.9525 0.9525 v 1.905 1.905 h 0.952499 0.9525 v 0.9525 0.9525 h -1.904999 -1.905 v -0.9525 -0.9525 h -0.952499 -0.9525 v -0.9525 -0.9525 h -3.809999 -3.809999 v 0.9525 0.9525 h -0.952499 -0.9525 v 1.905 1.905 h 0.9525 0.952499 v 0.9525 0.9525 h 4.762499 4.762498 v 0.9525 0.9525 h 0.9525 0.9525 v 0.9525 0.9525 h 0.952499 0.9525 v 3.81 3.81 h -0.9525 -0.952499 v 0.9525 0.95249 h -0.9525 -0.9525 v 0.9525 0.9525 h -5.714998 -5.714998 z"
           id="path100"
           transform="translate(-17.197917,-3.4395833)" /></g></g></g></svg>
